<?xml version="1.0" standalone="no"?>
<!DOCTYPE svg PUBLIC "-//W3C//DTD SVG 20010904//EN"
 "http://www.w3.org/TR/2001/REC-SVG-20010904/DTD/svg10.dtd">
<svg version="1.0" xmlns="http://www.w3.org/2000/svg"
 width="640.000000pt" height="640.000000pt" viewBox="0 0 640.000000 640.000000"
 preserveAspectRatio="xMidYMid meet">
<metadata>
Created by potrace 1.14, written by Peter Selinger 2001-2017
</metadata>
<g transform="translate(0.000000,640.000000) scale(0.100000,-0.100000)"
fill="#000000" stroke="none">
<path d="M2853 6384 c-899 -98 -1718 -572 -2245 -1299 -318 -440 -516 -942
-590 -1500 -18 -134 -18 -636 0 -770 118 -884 551 -1637 1247 -2168 958 -731
2272 -855 3361 -316 889 439 1530 1282 1718 2258 44 227 51 312 51 611 0 299
-7 384 -51 611 -249 1291 -1268 2302 -2560 2539 -268 49 -661 64 -931 34z
m642 -305 c145 -12 378 -57 537 -104 473 -140 917 -413 1263 -777 429 -450
695 -1009 777 -1633 35 -272 24 -642 -28 -910 -225 -1162 -1122 -2064 -2279
-2294 -197 -39 -340 -52 -565 -52 -225 0 -368 13 -565 52 -1002 199 -1824 910
-2164 1871 -113 320 -162 614 -162 968 -1 280 24 477 92 740 249 963 1013
1753 1967 2035 360 106 713 139 1127 104z"/>
<path d="M3501 5413 c-80 -11 -300 -74 -366 -105 -52 -24 -60 -29 -163 -104
l-62 -46 -89 36 -89 36 -179 3 c-156 2 -191 -1 -283 -21 -177 -40 -325 -81
-387 -108 -113 -50 -290 -168 -348 -233 -126 -140 -275 -334 -275 -359 0 -4
-14 -24 -31 -45 -17 -20 -62 -99 -101 -175 -39 -75 -88 -170 -109 -210 -48
-90 -107 -310 -139 -517 -5 -33 -10 -353 -10 -712 0 -710 -4 -634 60 -1066 12
-79 45 -186 65 -206 7 -7 64 -31 127 -51 62 -21 161 -59 220 -84 58 -25 130
-52 160 -60 371 -98 386 -102 463 -115 87 -15 147 -27 205 -41 25 -6 70 -17
100 -24 30 -7 64 -18 76 -24 12 -6 66 -18 120 -27 54 -8 122 -20 149 -27 114
-24 996 -16 1190 11 92 14 223 41 295 62 36 10 88 23 115 29 147 31 468 144
596 211 31 16 62 29 68 29 30 0 217 105 314 176 59 43 124 89 144 101 62 36
162 132 185 176 21 39 22 55 22 222 -1 257 -9 533 -23 735 -6 96 -16 254 -22
350 -10 167 -19 247 -39 335 -16 67 -57 252 -91 410 -65 304 -187 610 -306
767 -66 87 -226 241 -348 335 -55 42 -218 123 -390 193 -44 17 -93 38 -110 46
-16 7 -46 17 -65 23 -19 5 -62 20 -95 31 -83 30 -448 58 -554 43z m-523 -652
c47 -32 212 -111 268 -127 29 -8 56 -20 59 -25 4 -5 13 -9 21 -9 14 0 214 -80
312 -126 29 -13 57 -24 62 -24 6 0 18 -4 28 -9 192 -100 404 -191 527 -226 33
-10 107 -33 164 -51 57 -19 113 -35 125 -35 39 -3 -97 -18 -249 -29 -82 -6
-197 -19 -255 -30 -58 -10 -157 -26 -220 -35 -134 -19 -171 -33 -228 -85 l-42
-38 0 -141 0 -141 -260 0 -260 0 0 98 c0 169 -12 186 -165 235 -131 42 -228
50 -544 44 -360 -7 -475 -29 -513 -101 -7 -13 -14 -126 -19 -293 -4 -150 -10
-292 -13 -315 -12 -95 21 -129 163 -168 36 -10 80 -23 96 -28 128 -44 221 -56
446 -60 218 -3 230 -3 330 23 57 15 118 34 136 43 39 19 46 46 64 230 l13 132
263 0 263 0 0 -83 c0 -94 28 -211 55 -231 22 -16 235 -30 450 -31 145 0 185 5
370 46 28 7 55 15 60 19 6 4 20 11 33 15 23 7 124 66 202 118 25 17 69 55 99
85 l53 55 -6 66 c-16 157 -37 287 -55 334 -17 44 -14 52 23 52 25 0 40 -8 61
-33 31 -37 82 -161 97 -237 10 -52 -3 -279 -23 -400 -9 -50 -60 -172 -99 -235
-36 -59 -102 -173 -123 -215 -45 -90 -196 -222 -332 -292 -83 -43 -356 -143
-495 -182 -80 -22 -197 -54 -260 -72 -113 -31 -120 -32 -369 -36 -239 -5 -387
4 -496 27 -22 5 -76 16 -120 25 -44 10 -123 28 -175 42 -52 14 -146 36 -209
49 -63 13 -141 33 -173 44 -32 11 -63 20 -69 20 -38 0 -167 68 -309 163 -196
131 -219 151 -287 259 -42 68 -58 107 -88 218 -32 119 -36 148 -36 245 1 83 6
119 20 150 10 22 29 64 42 94 34 78 71 124 126 162 26 18 55 40 63 49 8 9 34
29 56 46 41 29 150 111 169 126 22 19 156 97 211 124 33 15 97 53 143 84 47
30 92 60 101 65 10 6 42 29 71 51 141 106 167 123 204 144 22 12 60 41 85 65
25 24 87 84 138 132 52 48 115 109 140 135 26 26 49 48 50 48 2 0 16 -8 30
-19z m1647 -858 c8 -32 22 -74 29 -93 8 -19 20 -69 26 -110 7 -41 16 -92 21
-112 8 -32 6 -40 -16 -62 -14 -14 -25 -29 -25 -35 0 -12 -126 -92 -207 -132
-41 -20 -95 -35 -157 -45 -52 -7 -106 -18 -121 -24 -14 -5 -56 -10 -93 -10
-111 0 -356 23 -364 34 -4 6 -8 127 -8 268 0 297 -11 269 115 288 44 6 131 20
193 31 62 11 176 24 255 30 78 6 167 14 197 19 30 4 74 8 97 9 l42 1 16 -57z
m-1841 -82 c32 -12 65 -26 72 -32 20 -17 18 -241 -3 -410 l-17 -137 -76 -21
c-68 -18 -94 -20 -270 -15 -145 4 -218 10 -285 25 -83 19 -256 67 -261 72 -1
1 1 115 4 254 l5 252 66 15 c95 23 126 24 431 21 248 -3 281 -6 334 -24z"/>
<path d="M3568 2822 c-148 -129 -186 -131 -373 -22 -27 16 -63 29 -78 29 -38
1 -77 -39 -77 -79 0 -37 44 -100 71 -100 10 0 40 -14 66 -30 65 -42 133 -60
220 -60 78 0 105 10 189 67 88 60 116 92 121 138 4 34 1 47 -16 64 -31 31 -82
28 -123 -7z"/>
<path d="M4103 3714 c-23 -23 -25 -30 -18 -72 4 -26 13 -82 19 -124 12 -87 36
-121 83 -121 41 0 100 31 107 56 9 36 7 142 -5 199 -14 70 -36 88 -106 88 -45
0 -58 -4 -80 -26z"/>
<path d="M2315 3625 c-23 -22 -25 -31 -25 -125 0 -155 33 -208 122 -195 86 13
89 20 73 210 -10 120 -21 135 -97 135 -39 0 -54 -5 -73 -25z"/>
</g>
</svg>
